HIERARCHY
ROOT Pelvis
{
	OFFSET 0.000000 0.000000 0.000000
	CHANNELS 6 Xposition Yposition Zposition Xrotation Yrotation Zrotation
	JOINT LeftUpLeg_virtual
	{
		OFFSET 0.000000 0.000000 0.000000
		CHANNELS 3 Xrotation Yrotation Zrotation
		JOINT LeftUpLeg
		{
			OFFSET 18.735201 -5.666702 -4.541200
			CHANNELS 3 Xrotation Yrotation Zrotation
			JOINT LeftLeg
			{
				OFFSET -0.021200 -31.938179 0.493100
				CHANNELS 3 Xrotation Yrotation Zrotation
				JOINT LeftFoot
				{
					OFFSET 0.021200 -31.938179 -4.336299
					CHANNELS 3 Xrotation Yrotation Zrotation
					JOINT LeftToeBase
					{
						OFFSET 0.943001 -26.722000 15.023500
						CHANNELS 3 Xrotation Yrotation Zrotation
						End Site
						{
							OFFSET 0 0 0
						}
					}
				}
			}
		}
	}
	JOINT RightUpLeg_virtual
	{
		OFFSET 0.000000 0.000000 0.000000
		CHANNELS 3 Xrotation Yrotation Zrotation
		JOINT RightUpLeg
		{
			OFFSET -18.735201 -5.666702 -4.541200
			CHANNELS 3 Xrotation Yrotation Zrotation
			JOINT RightLeg
			{
				OFFSET 0.018946 -31.938133 0.493100
				CHANNELS 3 Xrotation Yrotation Zrotation
				JOINT RightFoot
				{
					OFFSET -0.018946 -31.938126 -4.336299
					CHANNELS 3 Xrotation Yrotation Zrotation
					JOINT RightToeBase
					{
						OFFSET -0.943001 -26.722004 15.023500
						CHANNELS 3 Xrotation Yrotation Zrotation
						End Site
						{
							OFFSET 0 0 0
						}
					}
				}
			}
		}
	}
	JOINT Hips_virtual
	{
		OFFSET 0.000000 0.000000 0.000000
		CHANNELS 3 Xrotation Yrotation Zrotation
		JOINT Hips
		{
			OFFSET -0.000000 -0.000000 -0.000000
			CHANNELS 3 Xrotation Yrotation Zrotation
			JOINT Spine
			{
				OFFSET 0.000000 10.199997 -0.299500
				CHANNELS 3 Xrotation Yrotation Zrotation
				JOINT Spine1
				{
					OFFSET 0.000000 11.900002 -1.516600
					CHANNELS 3 Xrotation Yrotation Zrotation
					JOINT Spine2
					{
						OFFSET 0.000000 13.600006 -2.842500
						CHANNELS 3 Xrotation Yrotation Zrotation
						JOINT Neck_virtual
						{
							OFFSET 0.000000 0.000000 0.000000
							CHANNELS 3 Xrotation Yrotation Zrotation
							JOINT Neck
							{
								OFFSET 0.000000 9.624100 -2.890100
								CHANNELS 3 Xrotation Yrotation Zrotation
								JOINT Head
								{
									OFFSET 0.000000 14.068802 -1.351900
									CHANNELS 3 Xrotation Yrotation Zrotation
									End Site
									{
										OFFSET 0 0 0
									}
								}
							}
						}
						JOINT LeftShoulder_virtual
						{
							OFFSET 0.000000 0.000000 0.000000
							CHANNELS 3 Xrotation Yrotation Zrotation
							JOINT LeftShoulder
							{
								OFFSET 15.263000 10.923401 -0.547700
								CHANNELS 3 Xrotation Yrotation Zrotation
								JOINT LeftArm
								{
									OFFSET 25.438599 -2.830597 -13.032500
									CHANNELS 3 Xrotation Yrotation Zrotation
									JOINT LeftForeArm
									{
										OFFSET 29.960503 0.000000 0.000000
										CHANNELS 3 Xrotation Yrotation Zrotation
										JOINT LeftHand
										{
											OFFSET 27.849251 0.000000 0.000000
											CHANNELS 3 Xrotation Yrotation Zrotation
											End Site
											{
												OFFSET 0 0 0
											}
										}
									}
								}
							}
						}
						JOINT RightShoulder_virtual
						{
							OFFSET 0.000000 0.000000 0.000000
							CHANNELS 3 Xrotation Yrotation Zrotation
							JOINT RightShoulder
							{
								OFFSET -15.263000 10.923401 -0.547700
								CHANNELS 3 Xrotation Yrotation Zrotation
								JOINT RightArm
								{
									OFFSET -25.438599 -2.830597 -13.032500
									CHANNELS 3 Xrotation Yrotation Zrotation
									JOINT RightForeArm
									{
										OFFSET -29.960503 0.000000 0.000000
										CHANNELS 3 Xrotation Yrotation Zrotation
										JOINT RightHand
										{
											OFFSET -27.849251 0.000000 0.000000
											CHANNELS 3 Xrotation Yrotation Zrotation
											End Site
											{
												OFFSET 0 0 0
											}
										}
									}
								}
							}
						}
					}
				}
			}
		}
	}
}
MOTION
Frames: 8
Frame Time: 0.03333333
-10.860207 88.109108 36.258213 0.000000 0.000000 0.000000 26.542457 3.383833 -22.961892 -81.941773 -4.481858 10.250330 31.634619 8.655818 2.814086 -3.140007 5.770295 -3.031824 0.000000 0.000000 0.000000 28.326220 7.410076 -16.382301 -5.949420 -23.791303 -15.895182 79.414609 4.928459 -0.832759 -3.739724 -4.194452 13.967719 0.000000 0.000000 0.000000 27.222410 12.154064 -20.187654 1.838155 5.337351 -2.627412 7.975690 10.716320 4.523100 15.863195 2.244017 -13.761632 0.000000 0.000000 0.000000 17.791709 3.055403 -9.617472 -9.602870 -3.728453 7.719547 0.000000 0.000000 0.000000 8.077662 7.020828 -5.560417 2.741473 -1.433413 7.707571 11.230784 -36.109957 -34.720464 -0.690538 -45.614431 -3.556963 0.000000 0.000000 0.000000 3.267065 12.017233 -0.131138 13.634340 23.537390 -8.169820 28.128804 60.803259 -21.677554 0.524075 65.137137 -0.495316 0.000000 0.000000 0.000000 
-11.171835 87.848602 37.440510 0.000000 0.000000 0.000000 24.716337 5.248676 -22.422130 -82.329529 -4.224841 11.172534 36.165985 7.605074 1.694674 -3.755720 5.644841 -3.365280 0.000000 0.000000 0.000000 26.749640 9.111232 -16.485862 -10.505240 -23.789224 -16.311986 77.454816 5.665930 -1.520177 -3.627523 -3.868203 13.965216 0.000000 0.000000 0.000000 25.418255 13.237733 -19.887096 1.539974 4.330292 -3.076719 8.518647 9.689917 3.871057 16.008164 1.849662 -13.571004 0.000000 0.000000 0.000000 17.967571 2.939037 -8.947175 -9.390074 -3.703345 7.363049 0.000000 0.000000 0.000000 8.325078 6.239288 -5.660798 2.615269 -0.981674 7.587563 9.081923 -39.953738 -28.674999 0.202074 -43.919158 -2.593282 0.000000 0.000000 0.000000 2.891935 11.437007 -0.474953 14.088001 21.690843 -7.581360 19.133607 57.299912 -17.181314 0.524075 65.137137 -0.495316 0.000000 0.000000 0.000000 
-11.338106 87.776047 38.719334 0.000000 0.000000 0.000000 22.888700 6.633831 -21.957858 -82.136529 -3.839728 12.330415 40.141913 6.429958 0.809450 -4.469328 5.542349 -3.904805 0.000000 0.000000 0.000000 25.015061 10.746039 -16.545250 -15.093388 -23.448555 -16.737150 75.252825 6.548059 -2.385281 -3.585253 -3.512114 14.011363 0.000000 0.000000 0.000000 23.622225 14.139364 -19.715609 1.185571 3.412503 -3.518043 9.158627 8.473203 3.018679 16.135753 1.303581 -13.241865 0.000000 0.000000 0.000000 18.258950 2.566075 -8.134857 -9.178698 -3.689360 7.016308 0.000000 0.000000 0.000000 8.542536 5.285433 -5.803444 2.538221 -0.554951 7.241560 5.382949 -43.306487 -23.856295 0.997943 -42.280667 -1.812963 0.000000 0.000000 0.000000 2.464270 10.753582 -0.831440 14.509366 19.132231 -7.370676 11.517019 54.404492 -13.805861 0.524075 65.137137 -0.495316 0.000000 0.000000 0.000000 
-11.417326 87.864357 40.023067 0.000000 0.000000 0.000000 20.933768 7.578312 -21.535110 -81.448531 -3.398733 13.716038 43.843835 5.287236 0.214401 -5.239742 5.578053 -4.700037 0.000000 0.000000 0.000000 23.037048 11.934557 -16.579808 -19.769694 -22.933743 -17.203693 72.618298 7.362457 -3.311486 -3.650357 -3.164836 14.061952 0.000000 0.000000 0.000000 21.847620 14.712661 -19.607760 0.775131 2.654933 -3.926435 9.901373 6.933268 1.975456 16.300952 0.503365 -12.683113 0.000000 0.000000 0.000000 18.725160 1.840966 -7.113350 -8.924014 -3.657194 6.687685 0.000000 0.000000 0.000000 8.676893 4.122706 -5.926380 2.541203 -0.136672 6.740344 0.213971 -45.969734 -20.395112 1.581412 -40.839586 -1.358820 0.000000 0.000000 0.000000 2.096293 10.001709 -1.190865 14.907352 16.263160 -7.648353 4.743242 52.457332 -11.029544 0.524075 65.137137 -0.495316 0.000000 0.000000 0.000000 
-11.414703 88.112671 41.373291 0.000000 0.000000 0.000000 18.884964 8.057333 -21.141838 -80.528238 -2.959016 15.208627 47.561066 4.224505 -0.163135 -6.054982 5.714603 -5.720914 0.000000 0.000000 0.000000 21.014706 12.674459 -16.654358 -24.436477 -22.688555 -17.870094 69.231808 8.135152 -4.094790 -3.795956 -2.866053 14.064802 0.000000 0.000000 0.000000 20.111200 15.009832 -19.591721 0.317218 1.967507 -4.320457 10.610450 5.050403 0.842196 16.478238 -0.566434 -11.875175 0.000000 0.000000 0.000000 19.298916 0.756365 -5.879172 -8.565221 -3.587054 6.369591 0.000000 0.000000 0.000000 8.694373 2.748116 -5.995758 2.621511 0.456927 6.126236 -5.720522 -48.051037 -18.149602 1.840039 -39.693894 -1.257643 0.000000 0.000000 0.000000 1.868867 9.230038 -1.535337 15.272928 13.478830 -8.530867 -1.656449 51.564073 -8.451005 0.524075 65.137137 -0.495316 0.000000 0.000000 0.000000 
-11.366844 88.470757 42.829449 0.000000 0.000000 0.000000 16.810491 8.206063 -20.780186 -79.477816 -2.505337 16.764612 51.418665 3.232978 -0.329004 -6.774411 5.826774 -6.922290 0.000000 0.000000 0.000000 19.197264 12.882684 -16.836932 -28.849592 -22.897921 -18.826348 64.639339 9.036296 -4.496053 -3.996670 -2.615778 14.004537 0.000000 0.000000 0.000000 18.383507 14.924093 -19.650775 -0.099918 1.366639 -4.680562 11.188955 2.982358 -0.273926 16.637560 -1.807297 -10.852303 0.000000 0.000000 0.000000 19.854062 -0.589920 -4.479176 -8.093696 -3.479320 6.047798 0.000000 0.000000 0.000000 8.576344 1.211413 -6.006837 2.736971 1.310521 5.477320 -11.777416 -49.909982 -17.057078 1.813233 -38.813329 -1.446953 0.000000 0.000000 0.000000 1.810843 8.483905 -1.817959 15.543885 11.095044 -9.816184 -8.430742 51.691473 -5.366192 0.524075 65.137137 -0.495316 0.000000 0.000000 0.000000 
-11.248842 88.953598 44.286278 0.000000 0.000000 0.000000 14.742303 8.019559 -20.515168 -78.324744 -2.085586 18.467821 55.172854 2.450315 -0.338504 -7.485241 5.867223 -8.098733 0.000000 0.000000 0.000000 17.537168 12.465377 -17.149611 -32.757434 -23.438349 -19.936940 58.459289 10.093580 -4.216757 -4.219302 -2.404906 13.850627 0.000000 0.000000 0.000000 16.682809 14.382189 -19.797971 -0.392201 0.914090 -4.959084 11.636937 0.864396 -1.216513 16.730407 -3.098793 -9.689215 0.000000 0.000000 0.000000 20.246776 -2.061789 -3.011968 -7.530921 -3.354904 5.717777 0.000000 0.000000 0.000000 8.344946 -0.398027 -5.967486 2.824345 2.549177 4.911128 -17.358545 -51.933470 -16.994682 1.643082 -38.204250 -1.798868 0.000000 0.000000 0.000000 1.915584 7.793177 -2.009011 15.679702 9.222483 -11.103245 -16.364168 52.580159 -0.868375 0.524075 65.137137 -0.495316 0.000000 0.000000 0.000000 
-10.961187 89.527466 45.754082 0.000000 0.000000 0.000000 12.934087 7.439187 -20.498791 -77.029958 -1.624595 20.301535 58.365134 1.889280 -0.284406 -8.234317 5.774881 -9.225279 0.000000 0.000000 0.000000 15.944474 11.594367 -17.552078 -35.862680 -23.946689 -20.846495 50.629020 11.075015 -3.202201 -4.334145 -2.181494 13.623099 0.000000 0.000000 0.000000 15.034150 13.361827 -20.050930 -0.597951 0.632968 -5.155823 11.891107 -1.109423 -1.909588 16.712587 -4.310778 -8.490489 0.000000 0.000000 0.000000 20.320086 -3.511013 -1.602503 -6.968771 -3.240517 5.389140 0.000000 0.000000 0.000000 8.047004 -1.986245 -5.893571 2.811260 4.160746 4.546819 -22.469034 -54.287525 -18.013490 1.474174 -38.020313 -2.173522 0.000000 0.000000 0.000000 2.092159 7.168934 -2.096212 15.685284 7.808460 -11.908893 -26.157253 53.838351 6.078452 0.524075 65.137137 -0.495316 0.000000 0.000000 0.000000 
